<svg xmlns="http://www.w3.org/2000/svg" xmlns:xlink="http://www.w3.org/1999/xlink" version="1.1" width="1000" height="1000" viewBox="0 0 1000 1000" xml:space="preserve">
<desc>Created with Fabric.js 3.5.0</desc>
<defs>
</defs>
<rect x="0" y="0" width="100%" height="100%" fill="#000000"/>
<g transform="matrix(1.6552 0 0 1.6552 432.2215 481.471)" id="text-0">
<path style="stroke: none; stroke-width: 1; stroke-dasharray: none; stroke-linecap: butt; stroke-dashoffset: 0; stroke-linejoin: miter; stroke-miterlimit: 4; is-custom-font: none; font-file-url: none; fill: rgb(255,255,255); fill-rule: nonzero; opacity: 1;" transform=" translate(-148.49, 14.375)" d="M 35.95 -26.9 L 21.55 -13.15 L 21.55 0 L 15.9 0 L 15.9 -13.15 L 1.5 -26.9 L 7.2 -28.75 L 18.7 -17.8 L 18.7 -17.8 L 30.3 -28.75 L 35.95 -26.9 Z M 35.95 -3.5 L 35.95 -18.55 L 41.8 -22 L 49.7 -22 L 49.7 -17.3 L 42.2 -17.3 L 42.2 -5.4 L 49.7 -5.4 L 49.7 -0.05 L 41.8 -0.05 L 35.95 -3.5 Z M 65.3 -3.5 L 65.3 -18.55 L 59.45 -22 L 51.5 -22 L 51.5 -17.3 L 59.05 -17.3 L 59.05 -5.4 L 51.5 -5.4 L 51.5 -0.05 L 59.45 -0.05 L 65.3 -3.5 Z M 103.59 -21.85 L 103.59 0 L 97.34 0 L 97.34 -2.25 L 89.84 0 L 89.84 -5.25 L 97.34 -5.25 L 97.34 -21.85 L 103.59 -21.85 Z M 73.8 -21.85 L 73.8 -3.45 L 79.45 0 L 87.55 0 L 87.55 -5.25 L 80.09 -5.25 L 80.09 -21.85 L 73.8 -21.85 Z M 113.59 0 L 113.59 -21.85 L 119.84 -21.85 L 119.84 -19.7 L 127.34 -21.85 L 127.34 -17.2 L 119.84 -17.2 L 119.84 0 L 113.59 0 Z M 136.09 -15.05 L 136.09 -19.1 L 129.59 -21.85 L 129.59 -15.05 L 136.09 -15.05 Z M 187.54 -28.75 L 187.54 -23.1 L 173.14 -23.1 L 173.14 0 L 166.24 0 L 166.24 -23.1 L 153.09 -23.1 L 153.09 -28.75 L 187.54 -28.75 Z M 188.44 -3.5 L 188.44 -18.55 L 194.29 -22 L 202.19 -22 L 202.19 -17.3 L 194.69 -17.3 L 194.69 -5.4 L 202.19 -5.4 L 202.19 -0.05 L 194.29 -0.05 L 188.44 -3.5 Z M 217.79 -3.5 L 217.79 -18.55 L 211.94 -22 L 203.99 -22 L 203.99 -17.3 L 211.54 -17.3 L 211.54 -5.4 L 203.99 -5.4 L 203.99 -0.05 L 211.94 -0.05 L 217.79 -3.5 Z M 226.78 0 L 226.78 -28.75 L 242.78 -28.75 L 242.78 -23.1 L 233.08 -23.1 L 233.08 -5.85 L 242.78 -5.85 L 242.78 0 L 226.78 0 Z M 261.23 -3.4 L 261.23 -25.3 L 255.58 -28.75 L 245.23 -28.75 L 245.23 -23.1 L 254.93 -23.1 L 254.93 -5.85 L 245.23 -5.85 L 245.23 0 L 255.58 0 L 261.23 -3.4 Z M 266.13 -3.5 L 266.13 -18.55 L 271.98 -22 L 279.88 -22 L 279.88 -17.3 L 272.38 -17.3 L 272.38 -5.4 L 279.88 -5.4 L 279.88 -0.05 L 271.98 -0.05 L 266.13 -3.5 Z M 295.48 -3.5 L 295.48 -18.55 L 289.63 -22 L 281.68 -22 L 281.68 -17.3 L 289.23 -17.3 L 289.23 -5.4 L 281.68 -5.4 L 281.68 -0.05 L 289.63 -0.05 L 295.48 -3.5 Z" stroke-linecap="round"/>
</g>
<g transform="matrix(0.6719 0 0 0.6719 444.3898 529.4173)" id="text-1">
<path style="stroke: none; stroke-width: 1; stroke-dasharray: none; stroke-linecap: butt; stroke-dashoffset: 0; stroke-linejoin: miter; stroke-miterlimit: 4; is-custom-font: none; font-file-url: none; fill: rgb(255,255,255); fill-rule: nonzero; opacity: 1;" transform=" translate(-349, 9.575)" d="M 5 -28.75 L 5 -28.75 L 21 -28.75 L 21 -22.85 L 11.3 -22.85 L 11.3 -17.2 L 21 -17.2 L 21 -11.35 L 11.3 -11.35 L 11.3 0 L 5 0 L 5 -28.75 Z M 39.45 -22.85 L 39.45 -22.85 L 39.45 -28.75 L 23.45 -28.75 L 23.45 -22.85 L 39.45 -22.85 Z M 31.55 -11.35 L 31.55 -11.35 L 31.55 -17.2 L 23.45 -17.2 L 23.45 -11.35 L 31.55 -11.35 Z M 38.15 -3.5 L 38.15 -18.55 L 44 -22 L 51.9 -22 L 51.9 -17.3 L 44.4 -17.3 L 44.4 -5.4 L 51.9 -5.4 L 51.9 -0.05 L 44 -0.05 L 38.15 -3.5 Z M 67.5 -3.5 L 67.5 -18.55 L 61.65 -22 L 53.7 -22 L 53.7 -17.3 L 61.25 -17.3 L 61.25 -5.4 L 53.7 -5.4 L 53.7 -0.05 L 61.65 -0.05 L 67.5 -3.5 Z M 76.5 0.05 L 76.5 -28.75 L 82.9 -28.75 L 82.9 0.05 L 76.5 0.05 Z M 121.69 -28.8 L 121.69 0 L 108.09 0 L 108.09 -5.25 L 115.39 -5.25 L 115.39 -17.25 L 107.89 -17.25 L 107.89 -21.9 L 115.39 -21.9 L 115.39 -28.8 L 121.69 -28.8 Z M 91.89 -3.45 L 91.89 -18.45 L 97.59 -21.9 L 105.69 -21.9 L 105.69 -17.25 L 97.99 -17.25 L 97.99 -5.25 L 105.49 -5.25 L 105.49 0 L 97.59 0 L 91.89 -3.45 Z M 160.89 -18.55 L 160.89 -12.85 L 154.99 -9.4 L 146.99 -9.4 L 146.99 -13.25 L 154.54 -13.25 L 154.54 -17.35 L 146.99 -17.35 L 146.99 -22.05 L 154.99 -22.05 L 160.89 -18.55 Z M 154.34 -6.95 L 160.89 -6.95 L 160.89 -3.45 L 154.99 0 L 146.99 0 L 146.99 -5.3 L 154.34 -5.3 L 154.34 -6.95 Z M 130.69 -18.55 L 130.69 -3.45 L 136.59 0 L 144.54 0 L 144.54 -5.3 L 136.99 -5.3 L 136.99 -9.4 L 144.54 -9.4 L 144.54 -13.25 L 136.99 -13.25 L 136.99 -17.35 L 144.54 -17.35 L 144.54 -22.05 L 136.59 -22.05 L 130.69 -18.55 Z M 169.89 0 L 169.89 -21.85 L 176.14 -21.85 L 176.14 -19.7 L 183.64 -21.85 L 183.64 -17.2 L 176.14 -17.2 L 176.14 0 L 169.89 0 Z M 192.39 -15.05 L 192.39 -19.1 L 185.89 -21.85 L 185.89 -15.05 L 192.39 -15.05 Z M 212.88 0 L 212.88 -28.75 L 228.88 -28.75 L 228.88 -23.1 L 219.18 -23.1 L 219.18 -17.2 L 228.88 -17.2 L 228.88 -11.5 L 219.18 -11.5 L 219.18 -5.85 L 228.88 -5.85 L 228.88 0 L 212.88 0 Z M 241.68 0 L 247.33 -3.4 L 247.33 -12.15 L 242.63 -14.35 L 247.33 -16.6 L 247.33 -25.3 L 241.68 -28.75 L 231.33 -28.75 L 231.33 -23.1 L 241.03 -23.1 L 241.03 -17.2 L 231.33 -17.2 L 231.33 -11.5 L 241.03 -11.5 L 241.03 -5.85 L 231.33 -5.85 L 231.33 0 L 241.68 0 Z M 255.33 -3.4 L 255.33 -9.75 L 261.03 -13.2 L 269.23 -13.2 L 269.23 -9.35 L 261.68 -9.35 L 261.68 -5.25 L 269.23 -5.25 L 269.23 0.05 L 261.03 0.05 L 255.33 -3.4 Z M 261.68 -15.05 L 255.33 -15.05 L 255.33 -18.5 L 261.03 -22 L 269.23 -22 L 269.23 -17.3 L 261.68 -17.3 L 261.68 -15.05 Z M 285.33 0.05 L 285.33 -18.5 L 279.63 -22 L 271.43 -22 L 271.43 -17.3 L 278.98 -17.3 L 278.98 -13.2 L 271.43 -13.2 L 271.43 -9.35 L 278.98 -9.35 L 278.98 -5.25 L 271.63 -5.25 L 271.63 0.05 L 285.33 0.05 Z M 323.63 -9.7 L 323.63 -3.45 L 317.93 0 L 309.88 0 L 309.88 -5.25 L 317.58 -5.25 L 317.58 -9.3 L 310.03 -9.3 L 310.03 -13.2 L 317.93 -13.2 L 323.63 -9.7 Z M 293.83 -12.75 L 293.83 -18.4 L 299.53 -21.85 L 307.63 -21.85 L 307.63 -17.2 L 300.13 -17.2 L 300.13 -13.2 L 307.63 -13.2 L 307.63 -9.3 L 299.53 -9.3 L 293.83 -12.75 Z M 293.83 -6.95 L 300.13 -6.95 L 300.13 -5.25 L 307.63 -5.25 L 307.63 0 L 299.53 0 L 293.83 -3.45 L 293.83 -6.95 Z M 323.63 -15.05 L 317.38 -15.05 L 317.38 -17.2 L 309.88 -17.2 L 309.88 -21.85 L 317.93 -21.85 L 323.63 -18.4 L 323.63 -15.05 Z M 361.83 -18.55 L 361.83 -12.85 L 355.93 -9.4 L 347.93 -9.4 L 347.93 -13.25 L 355.48 -13.25 L 355.48 -17.35 L 347.93 -17.35 L 347.93 -22.05 L 355.93 -22.05 L 361.83 -18.55 Z M 355.28 -6.95 L 361.83 -6.95 L 361.83 -3.45 L 355.93 0 L 347.93 0 L 347.93 -5.3 L 355.28 -5.3 L 355.28 -6.95 Z M 331.63 -18.55 L 331.63 -3.45 L 337.53 0 L 345.48 0 L 345.48 -5.3 L 337.93 -5.3 L 337.93 -9.4 L 345.48 -9.4 L 345.48 -13.25 L 337.93 -13.25 L 337.93 -17.35 L 345.48 -17.35 L 345.48 -22.05 L 337.53 -22.05 L 331.63 -18.55 Z M 399.62 -28.8 L 399.62 0 L 386.02 0 L 386.02 -5.25 L 393.32 -5.25 L 393.32 -17.25 L 385.82 -17.25 L 385.82 -21.9 L 393.32 -21.9 L 393.32 -28.8 L 399.62 -28.8 Z M 369.82 -3.45 L 369.82 -18.45 L 375.52 -21.9 L 383.62 -21.9 L 383.62 -17.25 L 375.92 -17.25 L 375.92 -5.25 L 383.42 -5.25 L 383.42 0 L 375.52 0 L 369.82 -3.45 Z M 455.57 -28.75 L 455.57 -23.1 L 441.17 -23.1 L 441.17 0 L 434.27 0 L 434.27 -23.1 L 421.12 -23.1 L 421.12 -28.75 L 455.57 -28.75 Z M 456.47 -3.5 L 456.47 -18.55 L 462.32 -22 L 470.22 -22 L 470.22 -17.3 L 462.72 -17.3 L 462.72 -5.4 L 470.22 -5.4 L 470.22 -0.05 L 462.32 -0.05 L 456.47 -3.5 Z M 485.82 -3.5 L 485.82 -18.55 L 479.97 -22 L 472.02 -22 L 472.02 -17.3 L 479.57 -17.3 L 479.57 -5.4 L 472.02 -5.4 L 472.02 -0.05 L 479.97 -0.05 L 485.82 -3.5 Z M 523.61 -28.8 L 523.61 0 L 510.01 0 L 510.01 -5.25 L 517.31 -5.25 L 517.31 -17.25 L 509.81 -17.25 L 509.81 -21.9 L 517.31 -21.9 L 517.31 -28.8 L 523.61 -28.8 Z M 493.81 -3.45 L 493.81 -18.45 L 499.51 -21.9 L 507.61 -21.9 L 507.61 -17.25 L 499.91 -17.25 L 499.91 -5.25 L 507.41 -5.25 L 507.41 0 L 499.51 0 L 493.81 -3.45 Z M 532.61 -3.5 L 532.61 -18.55 L 538.46 -22 L 546.36 -22 L 546.36 -17.3 L 538.86 -17.3 L 538.86 -5.4 L 546.36 -5.4 L 546.36 -0.05 L 538.46 -0.05 L 532.61 -3.5 Z M 561.96 -3.5 L 561.96 -18.55 L 556.11 -22 L 548.16 -22 L 548.16 -17.3 L 555.71 -17.3 L 555.71 -5.4 L 548.16 -5.4 L 548.16 -0.05 L 556.11 -0.05 L 561.96 -3.5 Z M 584.95 -25.3 L 584.95 -25.3 L 590.65 -28.75 L 600.95 -28.75 L 600.95 -23.1 L 591.25 -23.1 L 591.25 -17.2 L 600.95 -17.2 L 600.95 -11.5 L 591.25 -11.5 L 591.25 0 L 584.95 0 L 584.95 -25.3 Z M 619.4 -25.3 L 619.4 -25.3 L 613.5 -28.75 L 603.2 -28.75 L 603.2 -23.1 L 613.1 -23.1 L 613.1 -17.2 L 603.2 -17.2 L 603.2 -11.5 L 613.1 -11.5 L 613.1 0 L 619.4 0 L 619.4 -25.3 Z M 654.15 -18.55 L 654.15 -6.4 L 648.55 -3 L 640.65 -3 L 640.65 -7 L 647.9 -7 L 647.9 -17.3 L 640.35 -17.3 L 640.35 -22 L 648.55 -22 L 654.15 -18.55 Z M 624.3 9.65 L 624.3 -22 L 638.15 -22 L 638.15 -17.3 L 630.65 -17.3 L 630.65 -7 L 637.9 -7 L 637.9 -3 L 630.65 -3 L 630.65 9.65 L 624.3 9.65 Z M 693 -18.55 L 693 -6.4 L 687.4 -3 L 679.5 -3 L 679.5 -7 L 686.75 -7 L 686.75 -17.3 L 679.2 -17.3 L 679.2 -22 L 687.4 -22 L 693 -18.55 Z M 663.15 9.65 L 663.15 -22 L 677 -22 L 677 -17.3 L 669.5 -17.3 L 669.5 -7 L 676.75 -7 L 676.75 -3 L 669.5 -3 L 669.5 9.65 L 663.15 9.65 Z" stroke-linecap="round"/>
</g>
<g transform="matrix(1.3817 0 0 1.3817 719.5214 464.7305)" id="icon-0">
<path style="stroke: none; stroke-width: 1; stroke-dasharray: none; stroke-linecap: butt; stroke-dashoffset: 0; stroke-linejoin: miter; stroke-miterlimit: 4; is-custom-font: none; font-file-url: none; fill: rgb(255,255,255); fill-rule: nonzero; opacity: 1;" transform=" translate(-28.707, -24.471)" d="M 32.107 24.469 c 0 1.879 -1.521 3.402 -3.4 3.402 c -1.877 0 -3.4 -1.523 -3.4 -3.402 c 0 -1.875 1.523 -3.398 3.4 -3.398 C 30.586 21.07 32.107 22.594 32.107 24.469 z" stroke-linecap="round"/>
</g>
<g transform="matrix(1.3817 0 0 1.3817 719.5214 481.9567)" id="icon-0">
<path style="stroke: none; stroke-width: 1; stroke-dasharray: none; stroke-linecap: butt; stroke-dashoffset: 0; stroke-linejoin: miter; stroke-miterlimit: 4; is-custom-font: none; font-file-url: none; fill: rgb(255,255,255); fill-rule: nonzero; opacity: 1;" transform=" translate(-28.707, -36.938)" d="M 32.107 36.938 c 0 1.88 -1.521 3.398 -3.4 3.398 c -1.877 0 -3.4 -1.519 -3.4 -3.398 c 0 -1.877 1.523 -3.398 3.4 -3.398 C 30.586 33.54 32.107 35.062 32.107 36.938 z" stroke-linecap="round"/>
</g>
<g transform="matrix(1.3817 0 0 1.3817 719.5214 499.1868)" id="icon-0">
<circle style="stroke: none; stroke-width: 1; stroke-dasharray: none; stroke-linecap: butt; stroke-dashoffset: 0; stroke-linejoin: miter; stroke-miterlimit: 4; is-custom-font: none; font-file-url: none; fill: rgb(255,255,255); fill-rule: nonzero; opacity: 1;" cx="0" cy="0" r="3.4"/>
</g>
<g transform="matrix(1.3817 0 0 1.3817 750.9423 464.7306)" id="icon-0">
<path style="stroke: none; stroke-width: 1; stroke-dasharray: none; stroke-linecap: butt; stroke-dashoffset: 0; stroke-linejoin: miter; stroke-miterlimit: 4; is-custom-font: none; font-file-url: none; fill: rgb(255,255,255); fill-rule: nonzero; opacity: 1;" transform=" translate(-51.4475, -24.471)" d="M 62.854 27.541 H 40.041 c -1.693 0 -3.069 -1.374 -3.069 -3.072 c 0 -1.694 1.376 -3.068 3.069 -3.068 h 22.813 c 1.696 0 3.069 1.374 3.069 3.068 C 65.924 26.167 64.551 27.541 62.854 27.541 z" stroke-linecap="round"/>
</g>
<g transform="matrix(1.3817 0 0 1.3817 750.9423 481.958)" id="icon-0">
<path style="stroke: none; stroke-width: 1; stroke-dasharray: none; stroke-linecap: butt; stroke-dashoffset: 0; stroke-linejoin: miter; stroke-miterlimit: 4; is-custom-font: none; font-file-url: none; fill: rgb(255,255,255); fill-rule: nonzero; opacity: 1;" transform=" translate(-51.4475, -36.939)" d="M 62.854 40.011 H 40.041 c -1.693 0 -3.069 -1.376 -3.069 -3.072 s 1.376 -3.072 3.069 -3.072 h 22.813 c 1.696 0 3.069 1.376 3.069 3.072 S 64.551 40.011 62.854 40.011 z" stroke-linecap="round"/>
</g>
<g transform="matrix(1.3817 0 0 1.3817 750.9423 499.1869)" id="icon-0">
<path style="stroke: none; stroke-width: 1; stroke-dasharray: none; stroke-linecap: butt; stroke-dashoffset: 0; stroke-linejoin: miter; stroke-miterlimit: 4; is-custom-font: none; font-file-url: none; fill: rgb(255,255,255); fill-rule: nonzero; opacity: 1;" transform=" translate(-51.4475, -49.408)" d="M 62.854 52.479 H 40.041 c -1.693 0 -3.069 -1.376 -3.069 -3.07 c 0 -1.699 1.376 -3.072 3.069 -3.072 h 22.813 c 1.696 0 3.069 1.373 3.069 3.072 C 65.924 51.103 64.551 52.479 62.854 52.479 z" stroke-linecap="round"/>
</g>
<g transform="matrix(1.3817 0 0 1.3817 719.5214 515.3447)" id="icon-0">
<circle style="stroke: none; stroke-width: 1; stroke-dasharray: none; stroke-linecap: butt; stroke-dashoffset: 0; stroke-linejoin: miter; stroke-miterlimit: 4; is-custom-font: none; font-file-url: none; fill: rgb(255,255,255); fill-rule: nonzero; opacity: 1;" cx="0" cy="0" r="3.4"/>
</g>
<g transform="matrix(1.3817 0 0 1.3817 750.9423 515.3468)" id="icon-0">
<path style="stroke: none; stroke-width: 1; stroke-dasharray: none; stroke-linecap: butt; stroke-dashoffset: 0; stroke-linejoin: miter; stroke-miterlimit: 4; is-custom-font: none; font-file-url: none; fill: rgb(255,255,255); fill-rule: nonzero; opacity: 1;" transform=" translate(-51.4475, -61.1035)" d="M 62.854 64.174 H 40.041 c -1.693 0 -3.069 -1.375 -3.069 -3.072 c 0 -1.696 1.376 -3.069 3.069 -3.069 h 22.813 c 1.696 0 3.069 1.373 3.069 3.069 C 65.924 62.799 64.551 64.174 62.854 64.174 z" stroke-linecap="round"/>
</g>
<g transform="matrix(1.3817 0 0 1.3817 748.9415 500.005)" id="icon-0">
<path style="stroke: none; stroke-width: 1; stroke-dasharray: none; stroke-linecap: butt; stroke-dashoffset: 0; stroke-linejoin: miter; stroke-miterlimit: 4; is-custom-font: none; font-file-url: none; fill: rgb(255,255,255); fill-rule: nonzero; opacity: 1;" transform=" translate(-50, -50.001)" d="M 95 22.852 c 0 -11.092 -4.096 -15.188 -9.152 -15.188 H 23.602 c -5.199 0 -9.432 4.229 -9.432 9.433 v 59.298 h -0.018 H 5 c 0 13.849 5.111 15.943 11.422 15.943 h 7.18 h 40.125 h 7.297 c 5.203 0 9.434 -4.229 9.434 -9.433 V 22.852 H 95 z M 76.683 82.904 c 0 3.12 -2.538 5.659 -5.659 5.659 c -5.052 0 -7.638 -1.078 -7.638 -12.17 H 50.207 H 17.945 V 17.096 c 0 -3.12 2.534 -5.659 5.656 -5.659 h 55.572 c -1.496 2.371 -2.428 5.96 -2.469 11.082 c -0.012 0.115 -0.022 0.23 -0.022 0.333 V 82.904 z" stroke-linecap="round"/>
</g>
<g transform="matrix(2.05 0 0 0.4504 495.4766 499.3617)" id="tight-bounds">
<rect style="stroke: none; stroke-width: 1; stroke-dasharray: none; stroke-linecap: butt; stroke-dashoffset: 0; stroke-linejoin: miter; stroke-miterlimit: 4; is-custom-font: none; font-file-url: none; fill: none; fill-rule: nonzero; opacity: 1;" x="-160" y="-180" rx="0" ry="0" width="320" height="360"/>
</g>
</svg>