<svg xmlns="http://www.w3.org/2000/svg" version="1.1" xmlns:xlink="http://www.w3.org/1999/xlink" xmlns:svgjs="http://svgjs.dev/svgjs" width="1000" height="1000" viewBox="0 0 1000 1000"><rect width="1000" height="1000" fill="#ffffff"></rect><g transform="matrix(0.7,0,0,0.7,149.57575758014474,428.27876740372943)"><svg viewBox="0 0 396 81" data-background-color="#ffffff" preserveAspectRatio="xMidYMid meet" height="204" width="1000" xmlns="http://www.w3.org/2000/svg" xmlns:xlink="http://www.w3.org/1999/xlink"><g id="tight-bounds" transform="matrix(1,0,0,1,0.24000000248187803,0.18221176679216455)"><svg viewBox="0 0 395.5199999999999 80.63557646641569" height="80.63557646641569" width="395.5199999999999"><g><svg viewBox="0 0 395.5199999999999 80.63557646641569" height="80.63557646641569" width="395.5199999999999"><g><svg viewBox="0 0 518.255321725097 105.65791015395158" height="80.63557646641569" width="395.5199999999999"><g transform="matrix(1,0,0,1,0,14.602504225329056)"><svg viewBox="0 0 395.52 76.45290170329346" height="76.45290170329346" width="395.52"><g id="textblocktransform"><svg viewBox="0 0 395.52 76.45290170329346" height="76.45290170329346" width="395.52" id="textblock"><g><svg viewBox="0 0 395.52 44.18715608688331" height="44.18715608688331" width="395.52"><g transform="matrix(1,0,0,1,0,0)"><svg width="395.52" viewBox="-0.6299999952316284 -32.400001525878906 289.9700012207031 32.400001525878906" height="44.18715608688331" data-palette-color="#bb84e8"><path d="M10.35 0L10.35-10.3-0.63-32.4 9.96-32.4 21.17-9.55 21.17 0 10.35 0ZM32.3-32.4L21.85-11.82 16.6-22.46 21.92-32.4 32.3-32.4ZM44.58-25.83L44.58-6.59 48.63-6.59 48.63 0 40.33 0 33.76-6.47 33.76-25.93 40.33-32.4 48.63-32.4 48.63-25.83 44.58-25.83ZM54.47-6.59L54.47-25.83 50.34-25.83 50.34-32.4 58.71-32.4 65.26-25.93 65.26-6.47 58.71 0 50.34 0 50.34-6.59 54.47-6.59ZM101.26-32.4L101.26-6.47 94.79 0 86.47 0 86.47-6.47 90.47-6.47 90.47-32.4 101.26-32.4ZM80.78-32.4L80.78-6.47 84.76-6.47 84.76 0 76.46 0 69.97-6.47 69.97-32.4 80.78-32.4ZM117.52 0L106.73 0 106.73-32.4 117.52-32.4 117.52 0ZM127.34-25.93L119.23-25.93 119.23-32.4 131.56-32.4 138.05-25.93 138.05-16.21 133.07-11.23 132.73-11.91 122.6-10.57 122.99-9.72 119.23-9.72 119.23-15.99 127.34-15.99 127.34-25.93ZM133.07-11.23L139.15 0 127.63 0 122.99-9.72 131.56-9.72 133.07-11.23ZM162.8 0L162.8-23.66 174.04-23.66 174.04 0 162.8 0ZM154.36-25.34L154.36-32.4 182.48-32.4 182.48-25.34 154.36-25.34ZM196.66-25.83L196.66-6.59 200.72-6.59 200.72 0 192.42 0 185.85-6.47 185.85-25.93 192.42-32.4 200.72-32.4 200.72-25.83 196.66-25.83ZM206.55-6.59L206.55-25.83 202.43-25.83 202.43-32.4 210.8-32.4 217.34-25.93 217.34-6.47 210.8 0 202.43 0 202.43-6.59 206.55-6.59ZM247.15 0L234.82 0 234.82-6.47 242.83-6.47 242.83-25.93 234.82-25.93 234.82-32.4 247.15-32.4 253.64-25.93 253.64-6.47 247.15 0ZM222.32 0L222.32-32.4 233.11-32.4 233.11 0 222.32 0ZM268.66-25.83L268.66-6.59 272.71-6.59 272.71 0 264.41 0 257.84-6.47 257.84-25.93 264.41-32.4 272.71-32.4 272.71-25.83 268.66-25.83ZM278.54-6.59L278.54-25.83 274.42-25.83 274.42-32.4 282.79-32.4 289.34-25.93 289.34-6.47 282.79 0 274.42 0 274.42-6.59 278.54-6.59Z" opacity="1" transform="matrix(1,0,0,1,0,0)" fill="#000000" class="wordmark-text-0" data-fill-palette-color="primary" id="text-0"></path></svg></g></svg></g><g transform="matrix(1,0,0,1,94.9248,54.61868314725038)"><svg viewBox="0 0 300.5952 21.834218556043076" height="21.834218556043076" width="300.5952"><g transform="matrix(1,0,0,1,0,0)"><svg width="300.5952" viewBox="2.8600001335144043 -35.81999969482422 612.010009765625 44.459999084472656" height="21.834218556043076" data-palette-color="#bb84e8"><path d="M2.86 0L2.86-32.4 13.65-32.4 13.65-17.92 23.61-17.92 23.61-11.55 13.65-11.55 13.65 0 2.86 0ZM21.02-25.93L15.36-25.93 15.36-32.4 31.81-32.4 31.81-21.66 21.02-21.66 21.02-25.93ZM61.79-19.46L61.79-6.47 55.32 0 48.09 0 48.09-6.05 50.78-6.05 50.78-19.46 48.09-19.46 48.09-25.93 55.32-25.93 61.79-19.46ZM43.58-19.46L43.58-6.05 46.38-6.05 46.38 0 39.13 0 32.66-6.47 32.66-19.46 39.13-25.93 46.38-25.93 46.38-19.46 43.58-19.46ZM82.27-6.47L82.27 0 72.7 0 66.65-6.05 66.65-35.82 77.44-35.82 77.44-6.47 82.27-6.47ZM102.51-35.82L113.3-35.82 113.3 0 102.51 0 102.51-35.82ZM95.6-19.46L95.6-6.05 100.8-6.05 100.8-2.56 98.23 0 90.64 0 84.81-5.83 84.81-20.09 90.64-25.93 100.8-25.93 100.8-19.46 95.6-19.46ZM128.95-25.93L128.95 0 124.62 0 118.15-6.47 118.15-19.46 124.62-25.93 128.95-25.93ZM146.28-10.4L130.65-10.4 130.65-14.92 136.34-14.92 136.34-19.46 130.65-19.46 130.65-25.93 139.81-25.93 146.28-19.46 146.28-10.4ZM141.93 0L130.65 0 130.65-6.05 145.16-6.05 145.16-3.25 141.93 0ZM167.98-13.16L167.98-19.46 163.39-19.46 163.39-22.29 167-25.93 173.55-25.93 178.8-19.87 178.8-13.16 167.98-13.16ZM161.66 0L150.87 0 150.87-25.93 161.66-25.93 161.66 0ZM215.88-19.02L215.88-25.93 207.87-25.93 207.87-32.4 220.39-32.4 226.89-25.93 226.89-19.34 223.64-16.09 226.89-12.84 226.89-6.47 220.39 0 207.87 0 207.87-6.47 215.88-6.47 215.88-13.38 207.87-13.38 207.87-19.02 215.88-19.02ZM195.37 0L195.37-32.4 206.16-32.4 206.16 0 195.37 0ZM259.18 0L248.64 0 248.64-19.46 233.28-19.46 233.28-22.68 236.53-25.93 252.71-25.93 259.18-19.46 259.18 0ZM235.45-15.09L246.93-15.09 246.93-10.6 241.36-10.6 241.36-6.05 246.93-6.05 246.93-3.2 243.71 0 235.45 0 231.11-4.27 231.11-10.77 235.45-15.09ZM263.84-20.12L269.68-25.93 274-25.93 274-16.77 286.31-16.77 291.92-11.11 291.92-6.05 285.89 0 281.13 0 281.13-9.79 269.46-9.79 263.84-15.19 263.84-20.12ZM274.64-7.42L274.64-4.76 279.42-4.76 279.42 0 268.31-0.02 263.82-5.35 263.82-7.42 274.64-7.42ZM281.13-19.14L281.13-21.17 275.71-21.17 275.71-25.93 287.18-25.93 291.04-22.07 291.04-19.14 281.13-19.14ZM306.71-25.93L306.71 0 302.39 0 295.92-6.47 295.92-19.46 302.39-25.93 306.71-25.93ZM324.05-10.4L308.42-10.4 308.42-14.92 314.11-14.92 314.11-19.46 308.42-19.46 308.42-25.93 317.58-25.93 324.05-19.46 324.05-10.4ZM319.7 0L308.42 0 308.42-6.05 322.92-6.05 322.92-3.25 319.7 0ZM346.12-35.82L356.91-35.82 356.91 0 346.12 0 346.12-35.82ZM339.21-19.46L339.21-6.05 344.41-6.05 344.41-2.56 341.84 0 334.25 0 328.41-5.83 328.41-20.09 334.25-25.93 344.41-25.93 344.41-19.46 339.21-19.46ZM382.1 0L382.1-23.66 393.33-23.66 393.33 0 382.1 0ZM373.65-25.34L373.65-32.4 401.77-32.4 401.77-25.34 373.65-25.34ZM432.34-19.46L432.34-6.47 425.87 0 418.64 0 418.64-6.05 421.33-6.05 421.33-19.46 418.64-19.46 418.64-25.93 425.87-25.93 432.34-19.46ZM414.13-19.46L414.13-6.05 416.93-6.05 416.93 0 409.68 0 403.21-6.47 403.21-19.46 409.68-25.93 416.93-25.93 416.93-19.46 414.13-19.46ZM454.67-35.82L465.47-35.82 465.47 0 454.67 0 454.67-35.82ZM447.77-19.46L447.77-6.05 452.97-6.05 452.97-2.56 450.4 0 442.81 0 436.97-5.83 436.97-20.09 442.81-25.93 452.97-25.93 452.97-19.46 447.77-19.46ZM499.45-19.46L499.45-6.47 492.98 0 485.75 0 485.75-6.05 488.44-6.05 488.44-19.46 485.75-19.46 485.75-25.93 492.98-25.93 499.45-19.46ZM481.23-19.46L481.23-6.05 484.04-6.05 484.04 0 476.79 0 470.32-6.47 470.32-19.46 476.79-25.93 484.04-25.93 484.04-19.46 481.23-19.46ZM540.19 0L538.82-3.54 528.23-3.54 530.47-9.96 536.33-9.96 527.66-32.4 538.19-32.4 551.1 0 540.19 0ZM531.28-18.07L525.35 0 514.92 0 526.49-30.93 531.28-18.07ZM564.65 8.64L553.86 8.64 553.86-25.93 564.65-25.93 564.65 8.64ZM571.12-6.05L571.12-19.46 566.36-19.46 566.36-22.73 569.53-25.93 575.44-25.93 581.93-19.46 581.93-6.47 575.44 0 566.36 0 566.36-6.05 571.12-6.05ZM597.58 8.64L586.79 8.64 586.79-25.93 597.58-25.93 597.58 8.64ZM604.05-6.05L604.05-19.46 599.29-19.46 599.29-22.73 602.46-25.93 608.37-25.93 614.87-19.46 614.87-6.47 608.37 0 599.29 0 599.29-6.05 604.05-6.05Z" opacity="1" transform="matrix(1,0,0,1,0,0)" fill="#000000" class="slogan-text-1" data-fill-palette-color="secondary" id="text-1"></path></svg></g></svg></g></svg></g></svg></g><g transform="matrix(1,0,0,1,405.951527060367,0)"><svg viewBox="0 0 112.30379466472993 105.65791015395158" height="105.65791015395158" width="112.30379466472993"><g><svg xmlns="http://www.w3.org/2000/svg" xmlns:xlink="http://www.w3.org/1999/xlink" version="1.1" x="0" y="0" viewBox="5 7.663999557495117 90 84.67400360107422" enable-background="new 0 0 100 100" xml:space="preserve" height="105.65791015395158" width="112.30379466472993" class="icon-icon-0" data-fill-palette-color="accent" id="icon-0"><g fill="#bb84e8" data-fill-palette-color="accent"><path d="M32.107 24.469c0 1.879-1.521 3.402-3.4 3.402-1.877 0-3.4-1.523-3.4-3.402 0-1.875 1.523-3.398 3.4-3.398C30.586 21.07 32.107 22.594 32.107 24.469z" fill="#000000" data-fill-palette-color="accent"></path><path d="M32.107 36.938c0 1.88-1.521 3.398-3.4 3.398-1.877 0-3.4-1.519-3.4-3.398 0-1.877 1.523-3.398 3.4-3.398C30.586 33.54 32.107 35.062 32.107 36.938z" fill="#000000" data-fill-palette-color="accent"></path><circle cx="28.707" cy="49.408" r="3.4" fill="#000000" data-fill-palette-color="accent"></circle><path d="M62.854 27.541H40.041c-1.693 0-3.069-1.374-3.069-3.072 0-1.694 1.376-3.068 3.069-3.068h22.813c1.696 0 3.069 1.374 3.069 3.068C65.924 26.167 64.551 27.541 62.854 27.541z" fill="#000000" data-fill-palette-color="accent"></path><path d="M62.854 40.011H40.041c-1.693 0-3.069-1.376-3.069-3.072s1.376-3.072 3.069-3.072h22.813c1.696 0 3.069 1.376 3.069 3.072S64.551 40.011 62.854 40.011z" fill="#000000" data-fill-palette-color="accent"></path><path d="M62.854 52.479H40.041c-1.693 0-3.069-1.376-3.069-3.07 0-1.699 1.376-3.072 3.069-3.072h22.813c1.696 0 3.069 1.373 3.069 3.072C65.924 51.103 64.551 52.479 62.854 52.479z" fill="#000000" data-fill-palette-color="accent"></path><circle cx="28.707" cy="61.102" r="3.4" fill="#000000" data-fill-palette-color="accent"></circle><path d="M62.854 64.174H40.041c-1.693 0-3.069-1.375-3.069-3.072 0-1.696 1.376-3.069 3.069-3.069h22.813c1.696 0 3.069 1.373 3.069 3.069C65.924 62.799 64.551 64.174 62.854 64.174z" fill="#000000" data-fill-palette-color="accent"></path><path d="M95 22.852c0-11.092-4.096-15.188-9.152-15.188H23.602c-5.199 0-9.432 4.229-9.432 9.433v59.298h-0.018H5c0 13.849 5.111 15.943 11.422 15.943h7.18 40.125 7.297c5.203 0 9.434-4.229 9.434-9.433V22.852H95zM76.683 82.904c0 3.12-2.538 5.659-5.659 5.659-5.052 0-7.638-1.078-7.638-12.17H50.207 17.945V17.096c0-3.12 2.534-5.659 5.656-5.659h55.572c-1.496 2.371-2.428 5.96-2.469 11.082-0.012 0.115-0.022 0.23-0.022 0.333V82.904z" fill="#000000" data-fill-palette-color="accent"></path></g></svg></g></svg></g></svg></g></svg></g><defs></defs></svg><rect width="395.5199999999999" height="80.63557646641569" fill="none" stroke="none" visibility="hidden"></rect></g></svg></g></svg>