<svg xmlns="http://www.w3.org/2000/svg" version="1.1" xmlns:xlink="http://www.w3.org/1999/xlink" xmlns:svgjs="http://svgjs.dev/svgjs" width="1000" height="1000" viewBox="0 0 1000 1000"><rect width="1000" height="1000" fill="#141414"></rect><g transform="matrix(0.7,0,0,0.7,150,106.25)"><svg viewBox="0 0 320 360" data-background-color="#141414" preserveAspectRatio="xMidYMid meet" height="1125" width="1000" xmlns="http://www.w3.org/2000/svg" xmlns:xlink="http://www.w3.org/1999/xlink"><g id="tight-bounds" transform="matrix(1,0,0,1,0,0)"><svg viewBox="0 0 320 360" height="360" width="320"><g><svg></svg></g><g><svg viewBox="0 0 320 360" height="360" width="320"><g><path xmlns="http://www.w3.org/2000/svg" d="M297.491 100.645c-12.426-21.51-112.674-79.355-137.491-79.355-24.817 0-125.028 57.845-137.491 79.355-11.591 20.02-11.591 138.726 0 158.746 12.463 21.474 112.674 79.319 137.491 79.319 24.817 0 125.064-57.845 137.491-79.355 11.591-20.02 11.591-138.69 0-158.71zM309.481 93.705c-14.461-24.998-119.469-86.295-149.481-86.295-30.012 0-135.02 61.297-149.481 86.295-14.025 24.199-14.025 148.391 0 172.59 14.461 24.998 119.469 86.295 149.481 86.295 30.012 0 135.02-61.297 149.481-86.259 14.025-24.235 14.025-148.427 0-172.626zM300.906 261.353c-12.753 22.055-115.472 81.317-140.906 81.318-25.434 0-128.153-59.298-140.906-81.354-11.881-20.529-11.881-142.178 0-162.707 12.753-22.019 115.472-81.281 140.906-81.281 25.434 0 128.153 59.298 140.906 81.318 11.881 20.529 11.881 142.178 0 162.706z" fill="#9824c5" fill-rule="nonzero" stroke="none" stroke-width="1" stroke-linecap="butt" stroke-linejoin="miter" stroke-miterlimit="10" stroke-dasharray="" stroke-dashoffset="0" font-family="none" font-weight="none" font-size="none" text-anchor="none" style="mix-blend-mode: normal" data-fill-palette-color="tertiary"></path></g><g transform="matrix(1,0,0,1,48,158.94087706212161)"><svg viewBox="0 0 224 42.11824587575678" height="42.11824587575678" width="224"><g><svg viewBox="0 0 286.41201651518986 53.8534452382057" height="42.11824587575678" width="224"><g transform="matrix(1,0,0,1,0,7.4428422869010795)"><svg viewBox="0 0 224 38.96776066440354" height="38.96776066440354" width="224"><g id="textblocktransform"><svg viewBox="0 0 224 38.96776066440354" height="38.96776066440354" width="224" id="textblock"><g><svg viewBox="0 0 224 21.904761904761905" height="21.904761904761905" width="224"><g transform="matrix(1,0,0,1,0,0)"><svg width="224" viewBox="1.5 -28.75 293.9800109863281 28.75" height="21.904761904761905" data-palette-color="#ffffff"><path d="M35.95-26.9L21.55-13.15 21.55 0 15.9 0 15.9-13.15 1.5-26.9 7.2-28.75 18.7-17.8 18.7-17.8 30.3-28.75 35.95-26.9ZM35.95-3.5L35.95-18.55 41.8-22 49.7-22 49.7-17.3 42.2-17.3 42.2-5.4 49.7-5.4 49.7-0.05 41.8-0.05 35.95-3.5ZM65.3-3.5L65.3-18.55 59.45-22 51.5-22 51.5-17.3 59.05-17.3 59.05-5.4 51.5-5.4 51.5-0.05 59.45-0.05 65.3-3.5ZM103.59-21.85L103.59 0 97.34 0 97.34-2.25 89.84 0 89.84-5.25 97.34-5.25 97.34-21.85 103.59-21.85ZM73.8-21.85L73.8-3.45 79.45 0 87.55 0 87.55-5.25 80.09-5.25 80.09-21.85 73.8-21.85ZM113.59 0L113.59-21.85 119.84-21.85 119.84-19.7 127.34-21.85 127.34-17.2 119.84-17.2 119.84 0 113.59 0ZM136.09-15.05L136.09-19.1 129.59-21.85 129.59-15.05 136.09-15.05ZM187.54-28.75L187.54-23.1 173.14-23.1 173.14 0 166.24 0 166.24-23.1 153.09-23.1 153.09-28.75 187.54-28.75ZM188.44-3.5L188.44-18.55 194.29-22 202.19-22 202.19-17.3 194.69-17.3 194.69-5.4 202.19-5.4 202.19-0.05 194.29-0.05 188.44-3.5ZM217.79-3.5L217.79-18.55 211.94-22 203.99-22 203.99-17.3 211.54-17.3 211.54-5.4 203.99-5.4 203.99-0.05 211.94-0.05 217.79-3.5ZM226.78 0L226.78-28.75 242.78-28.75 242.78-23.1 233.08-23.1 233.08-5.85 242.78-5.85 242.78 0 226.78 0ZM261.23-3.4L261.23-25.3 255.58-28.75 245.23-28.75 245.23-23.1 254.93-23.1 254.93-5.85 245.23-5.85 245.23 0 255.58 0 261.23-3.4ZM266.13-3.5L266.13-18.55 271.98-22 279.88-22 279.88-17.3 272.38-17.3 272.38-5.4 279.88-5.4 279.88-0.05 271.98-0.05 266.13-3.5ZM295.48-3.5L295.48-18.55 289.63-22 281.68-22 281.68-17.3 289.23-17.3 289.23-5.4 281.68-5.4 281.68-0.05 289.63-0.05 295.48-3.5Z" opacity="1" transform="matrix(1,0,0,1,0,0)" fill="#ffffff" class="wordmark-text-0" data-fill-palette-color="quaternary" id="text-0"></path></svg></g></svg></g><g transform="matrix(1,0,0,1,11.200000000000017,27.075950476190478)"><svg viewBox="0 0 212.79999999999998 11.891810188213066" height="11.891810188213066" width="212.79999999999998"><g transform="matrix(1,0,0,1,0,0)"><svg width="212.79999999999998" viewBox="5 -28.799999237060547 688 38.44999694824219" height="11.891810188213066" data-palette-color="#ffffff"><path d="M5-28.75L5-28.75 21-28.75 21-22.85 11.3-22.85 11.3-17.2 21-17.2 21-11.35 11.3-11.35 11.3 0 5 0 5-28.75ZM39.45-22.85L39.45-22.85 39.45-28.75 23.45-28.75 23.45-22.85 39.45-22.85ZM31.55-11.35L31.55-11.35 31.55-17.2 23.45-17.2 23.45-11.35 31.55-11.35ZM38.15-3.5L38.15-18.55 44-22 51.9-22 51.9-17.3 44.4-17.3 44.4-5.4 51.9-5.4 51.9-0.05 44-0.05 38.15-3.5ZM67.5-3.5L67.5-18.55 61.65-22 53.7-22 53.7-17.3 61.25-17.3 61.25-5.4 53.7-5.4 53.7-0.05 61.65-0.05 67.5-3.5ZM76.5 0.05L76.5-28.75 82.9-28.75 82.9 0.05 76.5 0.05ZM121.69-28.8L121.69 0 108.09 0 108.09-5.25 115.39-5.25 115.39-17.25 107.89-17.25 107.89-21.9 115.39-21.9 115.39-28.8 121.69-28.8ZM91.89-3.45L91.89-18.45 97.59-21.9 105.69-21.9 105.69-17.25 97.99-17.25 97.99-5.25 105.49-5.25 105.49 0 97.59 0 91.89-3.45ZM160.89-18.55L160.89-12.85 154.99-9.4 146.99-9.4 146.99-13.25 154.54-13.25 154.54-17.35 146.99-17.35 146.99-22.05 154.99-22.05 160.89-18.55ZM154.34-6.95L160.89-6.95 160.89-3.45 154.99 0 146.99 0 146.99-5.3 154.34-5.3 154.34-6.95ZM130.69-18.55L130.69-3.45 136.59 0 144.54 0 144.54-5.3 136.99-5.3 136.99-9.4 144.54-9.4 144.54-13.25 136.99-13.25 136.99-17.35 144.54-17.35 144.54-22.05 136.59-22.05 130.69-18.55ZM169.89 0L169.89-21.85 176.14-21.85 176.14-19.7 183.64-21.85 183.64-17.2 176.14-17.2 176.14 0 169.89 0ZM192.39-15.05L192.39-19.1 185.89-21.85 185.89-15.05 192.39-15.05ZM212.88 0L212.88-28.75 228.88-28.75 228.88-23.1 219.18-23.1 219.18-17.2 228.88-17.2 228.88-11.5 219.18-11.5 219.18-5.85 228.88-5.85 228.88 0 212.88 0ZM241.68 0L247.33-3.4 247.33-12.15 242.63-14.35 247.33-16.6 247.33-25.3 241.68-28.75 231.33-28.75 231.33-23.1 241.03-23.1 241.03-17.2 231.33-17.2 231.33-11.5 241.03-11.5 241.03-5.85 231.33-5.85 231.33 0 241.68 0ZM255.33-3.4L255.33-9.75 261.03-13.2 269.23-13.2 269.23-9.35 261.68-9.35 261.68-5.25 269.23-5.25 269.23 0.05 261.03 0.05 255.33-3.4ZM261.68-15.05L255.33-15.05 255.33-18.5 261.03-22 269.23-22 269.23-17.3 261.68-17.3 261.68-15.05ZM285.33 0.05L285.33-18.5 279.63-22 271.43-22 271.43-17.3 278.98-17.3 278.98-13.2 271.43-13.2 271.43-9.35 278.98-9.35 278.98-5.25 271.63-5.25 271.63 0.05 285.33 0.05ZM323.63-9.7L323.63-3.45 317.93 0 309.88 0 309.88-5.25 317.58-5.25 317.58-9.3 310.03-9.3 310.03-13.2 317.93-13.2 323.63-9.7ZM293.83-12.75L293.83-18.4 299.53-21.85 307.63-21.85 307.63-17.2 300.13-17.2 300.13-13.2 307.63-13.2 307.63-9.3 299.53-9.3 293.83-12.75ZM293.83-6.95L300.13-6.95 300.13-5.25 307.63-5.25 307.63 0 299.53 0 293.83-3.45 293.83-6.95ZM323.63-15.05L317.38-15.05 317.38-17.2 309.88-17.2 309.88-21.85 317.93-21.85 323.63-18.4 323.63-15.05ZM361.83-18.55L361.83-12.85 355.93-9.4 347.93-9.4 347.93-13.25 355.48-13.25 355.48-17.35 347.93-17.35 347.93-22.05 355.93-22.05 361.83-18.55ZM355.28-6.95L361.83-6.95 361.83-3.45 355.93 0 347.93 0 347.93-5.3 355.28-5.3 355.28-6.95ZM331.63-18.55L331.63-3.45 337.53 0 345.48 0 345.48-5.3 337.93-5.3 337.93-9.4 345.48-9.4 345.48-13.25 337.93-13.25 337.93-17.35 345.48-17.35 345.48-22.05 337.53-22.05 331.63-18.55ZM399.62-28.8L399.62 0 386.02 0 386.02-5.25 393.32-5.25 393.32-17.25 385.82-17.25 385.82-21.9 393.32-21.9 393.32-28.8 399.62-28.8ZM369.82-3.45L369.82-18.45 375.52-21.9 383.62-21.9 383.62-17.25 375.92-17.25 375.92-5.25 383.42-5.25 383.42 0 375.52 0 369.82-3.45ZM455.57-28.75L455.57-23.1 441.17-23.1 441.17 0 434.27 0 434.27-23.1 421.12-23.1 421.12-28.75 455.57-28.75ZM456.47-3.5L456.47-18.55 462.32-22 470.22-22 470.22-17.3 462.72-17.3 462.72-5.4 470.22-5.4 470.22-0.05 462.32-0.05 456.47-3.5ZM485.82-3.5L485.82-18.55 479.97-22 472.02-22 472.02-17.3 479.57-17.3 479.57-5.4 472.02-5.4 472.02-0.05 479.97-0.05 485.82-3.5ZM523.61-28.8L523.61 0 510.01 0 510.01-5.25 517.31-5.25 517.31-17.25 509.81-17.25 509.81-21.9 517.31-21.9 517.31-28.8 523.61-28.8ZM493.81-3.45L493.81-18.45 499.51-21.9 507.61-21.9 507.61-17.25 499.91-17.25 499.91-5.25 507.41-5.25 507.41 0 499.51 0 493.81-3.45ZM532.61-3.5L532.61-18.55 538.46-22 546.36-22 546.36-17.3 538.86-17.3 538.86-5.4 546.36-5.4 546.36-0.05 538.46-0.05 532.61-3.5ZM561.96-3.5L561.96-18.55 556.11-22 548.16-22 548.16-17.3 555.71-17.3 555.71-5.4 548.16-5.4 548.16-0.05 556.11-0.05 561.96-3.5ZM584.95-25.3L584.95-25.3 590.65-28.75 600.95-28.75 600.95-23.1 591.25-23.1 591.25-17.2 600.95-17.2 600.95-11.5 591.25-11.5 591.25 0 584.95 0 584.95-25.3ZM619.4-25.3L619.4-25.3 613.5-28.75 603.2-28.75 603.2-23.1 613.1-23.1 613.1-17.2 603.2-17.2 603.2-11.5 613.1-11.5 613.1 0 619.4 0 619.4-25.3ZM654.15-18.55L654.15-6.4 648.55-3 640.65-3 640.65-7 647.9-7 647.9-17.3 640.35-17.3 640.35-22 648.55-22 654.15-18.55ZM624.3 9.65L624.3-22 638.15-22 638.15-17.3 630.65-17.3 630.65-7 637.9-7 637.9-3 630.65-3 630.65 9.65 624.3 9.65ZM693-18.55L693-6.4 687.4-3 679.5-3 679.5-7 686.75-7 686.75-17.3 679.2-17.3 679.2-22 687.4-22 693-18.55ZM663.15 9.65L663.15-22 677-22 677-17.3 669.5-17.3 669.5-7 676.75-7 676.75-3 669.5-3 669.5 9.65 663.15 9.65Z" opacity="1" transform="matrix(1,0,0,1,0,0)" fill="#ffffff" class="slogan-text-1" data-fill-palette-color="quaternary" id="text-1"></path></svg></g></svg></g></svg></g></svg></g><g transform="matrix(1,0,0,1,229.17118857142856,0)"><svg viewBox="0 0 57.24082794376129 53.8534452382057" height="53.8534452382057" width="57.24082794376129"><g><svg xmlns="http://www.w3.org/2000/svg" xmlns:xlink="http://www.w3.org/1999/xlink" version="1.1" x="0" y="0" viewBox="5 7.663999557495117 90 84.67400360107422" enable-background="new 0 0 100 100" xml:space="preserve" height="53.8534452382057" width="57.24082794376129" class="icon-icon-0" data-fill-palette-color="quaternary" id="icon-0"><g fill="#ffffff" data-fill-palette-color="quaternary"><path d="M32.107 24.469c0 1.879-1.521 3.402-3.4 3.402-1.877 0-3.4-1.523-3.4-3.402 0-1.875 1.523-3.398 3.4-3.398C30.586 21.07 32.107 22.594 32.107 24.469z" fill="#ffffff" data-fill-palette-color="quaternary"></path><path d="M32.107 36.938c0 1.88-1.521 3.398-3.4 3.398-1.877 0-3.4-1.519-3.4-3.398 0-1.877 1.523-3.398 3.4-3.398C30.586 33.54 32.107 35.062 32.107 36.938z" fill="#ffffff" data-fill-palette-color="quaternary"></path><circle cx="28.707" cy="49.408" r="3.4" fill="#ffffff" data-fill-palette-color="quaternary"></circle><path d="M62.854 27.541H40.041c-1.693 0-3.069-1.374-3.069-3.072 0-1.694 1.376-3.068 3.069-3.068h22.813c1.696 0 3.069 1.374 3.069 3.068C65.924 26.167 64.551 27.541 62.854 27.541z" fill="#ffffff" data-fill-palette-color="quaternary"></path><path d="M62.854 40.011H40.041c-1.693 0-3.069-1.376-3.069-3.072s1.376-3.072 3.069-3.072h22.813c1.696 0 3.069 1.376 3.069 3.072S64.551 40.011 62.854 40.011z" fill="#ffffff" data-fill-palette-color="quaternary"></path><path d="M62.854 52.479H40.041c-1.693 0-3.069-1.376-3.069-3.07 0-1.699 1.376-3.072 3.069-3.072h22.813c1.696 0 3.069 1.373 3.069 3.072C65.924 51.103 64.551 52.479 62.854 52.479z" fill="#ffffff" data-fill-palette-color="quaternary"></path><circle cx="28.707" cy="61.102" r="3.4" fill="#ffffff" data-fill-palette-color="quaternary"></circle><path d="M62.854 64.174H40.041c-1.693 0-3.069-1.375-3.069-3.072 0-1.696 1.376-3.069 3.069-3.069h22.813c1.696 0 3.069 1.373 3.069 3.069C65.924 62.799 64.551 64.174 62.854 64.174z" fill="#ffffff" data-fill-palette-color="quaternary"></path><path d="M95 22.852c0-11.092-4.096-15.188-9.152-15.188H23.602c-5.199 0-9.432 4.229-9.432 9.433v59.298h-0.018H5c0 13.849 5.111 15.943 11.422 15.943h7.18 40.125 7.297c5.203 0 9.434-4.229 9.434-9.433V22.852H95zM76.683 82.904c0 3.12-2.538 5.659-5.659 5.659-5.052 0-7.638-1.078-7.638-12.17H50.207 17.945V17.096c0-3.12 2.534-5.659 5.656-5.659h55.572c-1.496 2.371-2.428 5.96-2.469 11.082-0.012 0.115-0.022 0.23-0.022 0.333V82.904z" fill="#ffffff" data-fill-palette-color="quaternary"></path></g></svg></g></svg></g></svg></g></svg></g></svg></g><defs></defs></svg><rect width="320" height="360" fill="none" stroke="none" visibility="hidden"></rect></g></svg></g></svg>